<svg xmlns="http://www.w3.org/2000/svg" viewBox="0 0 200 200" width="200" height="200">
    <!-- Background Circle -->
    <circle cx="100" cy="100" r="90" fill="#673ab7" />

    <!-- Mesh Network Lines -->
    <g stroke="#ffffff" stroke-width="3" fill="none">
        <!-- Horizontal Lines -->
        <line x1="40" y1="60" x2="160" y2="60" />
        <line x1="40" y1="100" x2="160" y2="100" />
        <line x1="40" y1="140" x2="160" y2="140" />

        <!-- Vertical Lines -->
        <line x1="60" y1="40" x2="60" y2="160" />
        <line x1="100" y1="40" x2="100" y2="160" />
        <line x1="140" y1="40" x2="140" y2="160" />

        <!-- Diagonal Lines -->
        <line x1="60" y1="60" x2="140" y2="140" />
        <line x1="140" y1="60" x2="60" y2="140" />
    </g>

    <!-- Connection Nodes -->
    <g fill="#ffffff">
        <circle cx="60" cy="60" r="6" />
        <circle cx="100" cy="60" r="6" />
        <circle cx="140" cy="60" r="6" />

        <circle cx="60" cy="100" r="6" />
        <circle cx="100" cy="100" r="8" /> <!-- Center node is larger -->
        <circle cx="140" cy="100" r="6" />

        <circle cx="60" cy="140" r="6" />
        <circle cx="100" cy="140" r="6" />
        <circle cx="140" cy="140" r="6" />
    </g>

    <!-- Lightning Bolt (Fury) -->
    <path d="M85,40 L65,90 L85,90 L65,160" stroke="#ffeb3b" stroke-width="6" fill="none" stroke-linecap="round"
        stroke-linejoin="round" />
</svg>